# xmcd
#
# Track frame offsets:
#	150
#	12512
#	25090
#	36342
#	47872
#	57312
#	67547
#	77135
#	86710
#	100987
#	110287
#	124777
#	134442
#	148437
#	158847
#	171760
#	184715
#	197357
#	208735
#	219932
#	232870
#	244690
#	257050
#
# Disc length: 3576 seconds
#
# Revision: 0
# Processed by: cddbd v1.5.2PL0 Copyright (c) Steve Scherf et al.
# Submitted via: EasyCDDAExtractor 10.5.1.1
#
DISCID=3f0df617
DTITLE=Seppo Pirhonen - Kaikki levytykset 1960-1961
DYEAR=1999
DGENRE=Pop
TTITLE0=Postivaunut
TTITLE1=Keskiyö
TTITLE2=Shamppanjaa
TTITLE3=Ann-Maria
TTITLE4=Paljon päiviä
TTITLE5=Viimein
TTITLE6=Hän poistukoon
TTITLE7=Lepohetki
TTITLE8=Onnensininen soppeni
TTITLE9=Sucu sucu
TTITLE10=Sä olet taivaani
TTITLE11=Kaksi pitkää vuotta
TTITLE12=Taas muistan synnyinseudun
TTITLE13=Isä tykkää äidistä
TTITLE14=Kriminal tango
TTITLE15=Näkemiin rakkaus
TTITLE16=Kuin linnunpesä
TTITLE17=Tuuli tunturiin käy
TTITLE18=Ei tiedä toinen
TTITLE19=Kun ruusu kuihtuu
TTITLE20=Satu ruskeista silmistä
TTITLE21=Vuosi sitten
TTITLE22=Hän poistukoon (puhelinversio)
EXTD=
EXTT0=
EXTT1=
EXTT2=
EXTT3=
EXTT4=
EXTT5=
EXTT6=
EXTT7=
EXTT8=
EXTT9=
EXTT10=
EXTT11=
EXTT12=
EXTT13=
EXTT14=
EXTT15=
EXTT16=
EXTT17=
EXTT18=
EXTT19=
EXTT20=
EXTT21=
EXTT22=
PLAYORDER=
